<svg width="246" height="249" viewBox="0 0 246 249" fill="none" xmlns="http://www.w3.org/2000/svg">
<path d="M1 126.184L14.9093 139.591L26.4725 127.86M17.9258 109.258L15.0769 139.255M87.4724 212.992L101.382 226.398L112.945 214.668M104.398 196.066L101.549 226.063M90.1539 39.3765L104.063 52.7831L115.626 41.0523M107.08 22.4506L104.231 52.4479M176.626 126.184L190.536 139.591L202.099 127.86M193.552 109.258L190.703 139.255M44.5716 82.6127L58.4809 96.0193L70.0441 84.2885M61.4974 65.6868L58.6485 95.6841M131.044 169.42L144.953 182.827L156.517 171.096M147.97 152.494L145.121 182.492M44.2361 169.756L58.1455 183.162L69.7087 171.431M61.162 152.83L58.3131 182.827M133.39 82.9478L147.299 96.3544L158.863 84.6236M150.316 66.022L147.467 96.0192M87.8078 126.352L101.717 139.758L113.28 128.028M104.734 109.426L101.885 139.423M22.4504 104.734L36.3598 118.14L47.9229 106.409M39.3762 87.8078L36.5273 117.805M108.923 191.541L122.833 204.948L134.396 193.217M125.849 174.615L123 204.613M111.604 17.9258L125.514 31.3324L137.077 19.6016M128.53 1L125.681 30.9973M198.077 104.734L211.986 118.14L223.549 106.409M215.003 87.8078L212.154 117.805M66.022 61.162L79.9313 74.5686L91.4945 62.8378M82.9478 44.2361L80.0989 74.2334M152.494 147.97L166.404 161.376L177.967 149.646M169.42 131.044L166.571 161.041M65.6866 148.305L79.596 161.711L91.1591 149.981M82.6124 131.379L79.7635 161.376M154.84 61.4971L168.75 74.9037L180.313 63.173M171.766 44.5713L168.917 74.5686M109.258 104.901L123.167 118.308L134.731 106.577M126.184 87.9751L123.335 117.972M22.4504 147.97L36.3598 161.376L47.9229 149.646M39.3762 131.044L36.5273 161.041M108.923 234.778L122.833 248.184L134.396 236.453M125.849 217.852L123 247.849M111.604 61.162L125.514 74.5686L137.077 62.8378M128.53 44.2361L125.681 74.2334M198.077 147.97L211.986 161.376L223.549 149.646M215.003 131.044L212.154 161.041M66.022 104.398L79.9313 117.805L91.4945 106.074M82.9478 87.4726L80.0989 117.47M152.494 191.206L166.404 204.613L177.967 192.882M169.42 174.28L166.571 204.277M65.6866 191.541L79.596 204.948L91.1591 193.217M82.6124 174.615L79.7635 204.613M154.84 104.734L168.75 118.14L180.313 106.409M171.766 87.8078L168.917 117.805M109.258 148.137L123.168 161.544L134.731 149.813M126.184 131.212L123.335 161.209M43.9013 126.519L57.8107 139.926L69.3738 128.195M60.8271 109.593L57.9782 139.591M130.374 213.327L144.283 226.733L155.846 215.003M147.3 196.401L144.451 226.398M133.055 39.7116L146.964 53.1182L158.527 41.3874M149.981 22.7858L147.132 52.783M219.528 126.519L233.437 139.926L245 128.195M236.453 109.593L233.605 139.591M87.4724 83.1155L101.382 96.5221L112.945 84.7913M104.398 66.1897L101.549 96.1869M173.945 169.923L187.855 183.33L199.418 171.599M190.871 152.997L188.022 182.994M87.1375 170.091L101.047 183.497L112.61 171.767M104.063 153.165L101.214 183.162M176.291 83.2829L190.201 96.6895L201.764 84.9587M193.217 66.3571L190.368 96.3544M130.709 126.687L144.618 140.093L156.181 128.363M147.634 109.761L144.786 139.758" stroke="black"/>
</svg>