<svg width="30" height="30" viewBox="0 0 30 30" fill="none" xmlns="http://www.w3.org/2000/svg">
<path fill-rule="evenodd" clip-rule="evenodd" d="M23.8156 11.8905C23.7943 11.0738 23.7628 10.2552 23.6806 9.44292C23.4958 7.62231 22.4116 6.36683 20.618 6.02784C19.6599 5.84634 18.6654 5.82121 17.6863 5.80284C15.893 5.76984 14.099 5.77358 12.3054 5.80133C11.3799 5.81596 10.4454 5.84821 9.53339 5.99034C7.97601 6.23221 6.91213 7.12469 6.48201 8.66967C6.34401 9.16467 6.26339 9.68929 6.25139 10.2027C6.20526 12.1523 6.17676 14.1026 6.18314 16.0533C6.18764 17.2942 6.21614 18.5392 6.32376 19.7748C6.48314 21.6021 7.57626 22.8531 9.37064 23.1981C10.3351 23.383 11.3383 23.407 12.3253 23.425C14.1106 23.4595 15.8968 23.4482 17.6829 23.4287C18.5146 23.4197 19.3486 23.374 20.1766 23.2926C20.9443 23.2172 21.6624 22.966 22.2793 22.4755C23.2794 21.6805 23.6656 20.584 23.7245 19.3683C23.8044 17.7269 23.8205 16.0833 23.864 14.4405C23.8494 14.4397 23.8351 14.4397 23.8205 14.4397C23.8209 13.5892 23.8381 12.7395 23.8156 11.8905ZM14.9829 20.1449C11.9116 20.1434 9.46814 17.6744 9.46964 14.5736C9.47076 11.5181 11.9548 9.08067 15.0639 9.08405C18.0988 9.08742 20.5336 11.5793 20.5303 14.6782C20.5273 17.6954 18.0406 20.1457 14.9829 20.1449ZM20.7376 10.1678C20.0184 10.1547 19.433 9.55616 19.4465 8.84854C19.4604 8.12705 20.0428 7.56681 20.7718 7.57356C21.4985 7.57956 22.049 8.15294 22.0408 8.89355C22.0321 9.59892 21.4381 10.1802 20.7376 10.1678Z" fill="#0F0E0E"/>
<path fill-rule="evenodd" clip-rule="evenodd" d="M14.9953 11.0264C13.0235 11.0324 11.4088 12.6512 11.4122 14.6188C11.4155 16.5872 13.0389 18.2064 15.0047 18.2027C16.9742 18.1982 18.5915 16.5767 18.5882 14.6095C18.5844 12.64 16.9599 11.02 14.9953 11.0264Z" fill="#0F0E0E"/>
<path fill-rule="evenodd" clip-rule="evenodd" d="M25.6099 0H4.39013C1.96575 0 0 1.91885 0 4.28582V25.7142C0 28.0811 1.96575 30 4.39013 30H25.6099C28.0343 30 30 28.0811 30 25.7142V4.28582C30 1.91885 28.0343 0 25.6099 0ZM25.7486 18.008C25.7363 19.1386 25.6988 20.2737 25.3219 21.3605C24.5996 23.4451 23.1326 24.7099 20.9899 25.1217C20.0168 25.3088 19.0069 25.3287 18.012 25.3673C17.0066 25.4067 15.9986 25.3759 14.9917 25.3759C14.9917 25.3861 14.9918 25.3962 14.9914 25.4059C13.5368 25.3804 12.0817 25.3669 10.6275 25.3253C9.372 25.2893 8.1555 25.0624 7.06575 24.3938C5.63813 23.5171 4.76625 22.2286 4.48838 20.5917C4.32225 19.6134 4.263 18.608 4.248 17.6135C4.21538 15.4824 4.22813 13.3506 4.25138 11.2191C4.26338 10.0881 4.30088 8.95338 4.67813 7.86627C5.40038 5.78242 6.86738 4.51757 9.01013 4.1062C9.98325 3.9187 10.9931 3.87783 11.9876 3.86245C14.1263 3.82945 16.2664 3.84183 18.4058 3.86545C19.5285 3.87783 20.6558 3.91607 21.7354 4.28882C23.829 5.01181 25.1003 6.48104 25.509 8.63576C25.6939 9.60925 25.7359 10.6191 25.7512 11.6136C25.7843 13.7447 25.7715 15.8769 25.7486 18.008Z" fill="#0F0E0E"/>
</svg>