<svg width="219" height="68" viewBox="0 0 219 68" fill="none" xmlns="http://www.w3.org/2000/svg">
<path d="M3.30168 66.14C2.95501 66.14 2.62501 66.0867 2.31168 65.98C2.00501 65.8733 1.73168 65.69 1.49168 65.43C1.25834 65.1633 1.07501 64.7933 0.941675 64.32C0.808342 63.8467 0.741675 63.2433 0.741675 62.51C0.741675 61.7767 0.808342 61.1767 0.941675 60.71C1.07501 60.2433 1.25834 59.88 1.49168 59.62C1.73168 59.3533 2.00501 59.17 2.31168 59.07C2.62501 58.9633 2.95501 58.91 3.30168 58.91C3.65501 58.91 3.98501 58.9633 4.29168 59.07C4.59834 59.17 4.86834 59.3533 5.10168 59.62C5.34168 59.88 5.52834 60.2433 5.66167 60.71C5.79501 61.1767 5.86168 61.7767 5.86168 62.51C5.86168 63.2433 5.79501 63.8467 5.66167 64.32C5.52834 64.7933 5.34168 65.1633 5.10168 65.43C4.86834 65.69 4.59834 65.8733 4.29168 65.98C3.98501 66.0867 3.65501 66.14 3.30168 66.14ZM3.30168 65.38C3.58834 65.38 3.83501 65.35 4.04168 65.29C4.25501 65.2233 4.42834 65.0933 4.56168 64.9C4.70168 64.7067 4.80501 64.4233 4.87168 64.05C4.93834 63.67 4.97168 63.1667 4.97168 62.54C4.97168 61.9133 4.93834 61.41 4.87168 61.03C4.81167 60.65 4.71501 60.3633 4.58168 60.17C4.44834 59.97 4.27501 59.8367 4.06168 59.77C3.84834 59.7033 3.59501 59.67 3.30168 59.67C3.00168 59.67 2.74501 59.7033 2.53168 59.77C2.32501 59.8367 2.15501 59.97 2.02168 60.17C1.88834 60.3633 1.78834 60.65 1.72168 61.03C1.66168 61.41 1.63168 61.9133 1.63168 62.54C1.63168 63.1667 1.66501 63.67 1.73168 64.05C1.79834 64.4233 1.89834 64.7067 2.03168 64.9C2.16501 65.0933 2.33834 65.2233 2.55168 65.29C2.76501 65.35 3.01501 65.38 3.30168 65.38Z" fill="#0F0E0E"/>
<path d="M13.4342 66L13.4742 62.78L13.4342 59.05C13.4342 59.05 13.5008 59.0433 13.6342 59.03C13.7742 59.0167 13.9575 59 14.1842 58.98C14.4108 58.96 14.6575 58.9433 14.9242 58.93C15.1975 58.9167 15.4675 58.91 15.7342 58.91C16.3275 58.91 16.7875 59.1067 17.1142 59.5C17.4408 59.8867 17.6042 60.47 17.6042 61.25C17.6042 61.7367 17.5442 62.14 17.4242 62.46C17.3108 62.78 17.1542 63.03 16.9542 63.21C16.7542 63.3833 16.5308 63.5067 16.2842 63.58C16.0375 63.6533 15.7842 63.69 15.5242 63.69C15.3175 63.69 15.0875 63.6833 14.8342 63.67C14.5808 63.65 14.3942 63.6367 14.2742 63.63V66H13.4342ZM15.5842 62.98C15.7975 62.98 15.9708 62.97 16.1042 62.95C16.2375 62.9233 16.3442 62.87 16.4242 62.79C16.5375 62.6767 16.6142 62.4833 16.6542 62.21C16.6942 61.93 16.7142 61.5767 16.7142 61.15C16.7142 60.79 16.6942 60.5133 16.6542 60.32C16.6208 60.12 16.5775 59.9767 16.5242 59.89C16.4775 59.8033 16.4275 59.7433 16.3742 59.71C16.2208 59.6033 15.9408 59.55 15.5342 59.55C15.2742 59.55 15.0275 59.5633 14.7942 59.59C14.5675 59.61 14.3942 59.6333 14.2742 59.66V62.86C14.3675 62.8733 14.5408 62.8967 14.7942 62.93C15.0542 62.9633 15.3175 62.98 15.5842 62.98Z" fill="#0F0E0E"/>
<path d="M25.0447 66V59.05H28.1547V59.79H25.8347L25.8847 66H25.0447Z" fill="#0F0E0E"/>
<path d="M34.4834 66L36.3734 59.05H37.5534L39.4434 66H38.5834L38.1134 64.16H35.8134L35.3434 66H34.4834ZM35.9934 63.42H37.9334L37.0034 59.79H36.9234L35.9934 63.42Z" fill="#0F0E0E"/>
<path d="M46.342 66V59.05H47.182L47.152 62.09H50.072L50.052 59.05H50.892V66H50.052L50.072 62.83H47.152L47.182 66H46.342Z" fill="#0F0E0E"/>
<path d="M58.7924 66V59.05H59.6324L59.6024 62.71L59.6224 64.59L62.3324 59.05H63.5924V66H62.7524L62.7824 62.71L62.7624 59.84L59.7624 66H58.7924Z" fill="#0F0E0E"/>
<path d="M74.7567 66V62.99C74.49 63.0633 74.1733 63.15 73.8067 63.25C73.44 63.3433 73.09 63.39 72.7567 63.39C72.29 63.39 71.9333 63.3033 71.6867 63.13C71.44 62.9567 71.27 62.7067 71.1767 62.38C71.09 62.0533 71.0467 61.6633 71.0467 61.21V59.05H71.8867V61.15C71.8867 61.4767 71.8967 61.75 71.9167 61.97C71.9367 62.1833 71.9867 62.33 72.0667 62.41C72.1733 62.5167 72.3033 62.5767 72.4567 62.59C72.6167 62.6033 72.7567 62.61 72.8767 62.61C73.0967 62.61 73.3267 62.59 73.5667 62.55C73.8067 62.51 74.0333 62.4633 74.2467 62.41C74.46 62.35 74.63 62.2967 74.7567 62.25V59.05H75.5967V66H74.7567Z" fill="#0F0E0E"/>
<path d="M83.4978 66V59.05H86.9078V59.79L84.3378 59.76L84.2878 62.11H86.6678V62.82H84.2878L84.3378 65.28L86.9078 65.26V66H83.4978Z" fill="#0F0E0E"/>
<path d="M96.5046 66.14C96.0312 66.14 95.6146 66.0267 95.2546 65.8C94.8946 65.5667 94.6112 65.19 94.4046 64.67C94.2046 64.15 94.1046 63.46 94.1046 62.6C94.1046 61.84 94.1679 61.22 94.2946 60.74C94.4279 60.2533 94.6079 59.8767 94.8346 59.61C95.0679 59.3433 95.3412 59.16 95.6546 59.06C95.9679 58.96 96.3079 58.91 96.6746 58.91C96.8346 58.91 97.0246 58.92 97.2446 58.94C97.4646 58.9533 97.6779 58.9733 97.8846 59C98.0912 59.02 98.2479 59.0433 98.3546 59.07L98.2546 59.79C98.1946 59.7833 98.0979 59.7733 97.9646 59.76C97.8312 59.7467 97.6846 59.7333 97.5246 59.72C97.3646 59.7067 97.2112 59.6967 97.0646 59.69C96.9179 59.6767 96.8046 59.67 96.7246 59.67C96.3979 59.67 96.1346 59.6867 95.9346 59.72C95.7412 59.7533 95.5979 59.8267 95.5046 59.94C95.4179 60.0467 95.3346 60.2033 95.2546 60.41C95.1746 60.6167 95.1112 60.9 95.0646 61.26C95.0179 61.6133 94.9946 62.07 94.9946 62.63C94.9946 63.3367 95.0612 63.9033 95.1946 64.33C95.3346 64.75 95.4712 65.0267 95.6046 65.16C95.6979 65.2533 95.8112 65.32 95.9446 65.36C96.0779 65.3933 96.2279 65.41 96.3946 65.41C96.6479 65.41 96.8912 65.3833 97.1246 65.33C97.3646 65.2767 97.5746 65.2133 97.7546 65.14C97.9412 65.0667 98.0879 65.0033 98.1946 64.95C98.3012 64.8967 98.3546 64.87 98.3546 64.87L98.6446 65.53C98.6446 65.53 98.5912 65.56 98.4846 65.62C98.3846 65.68 98.2412 65.7533 98.0546 65.84C97.8679 65.92 97.6412 65.99 97.3746 66.05C97.1146 66.11 96.8246 66.14 96.5046 66.14Z" fill="#0F0E0E"/>
<path d="M109.865 66L106.935 62.43L109.615 59.05H110.675L107.925 62.36V62.42L110.985 66H109.865ZM106.065 66L106.095 62.47L106.065 59.05H106.905V66H106.065Z" fill="#0F0E0E"/>
<path d="M117.636 66V59.05H118.476L118.446 62.71L118.466 64.59L121.176 59.05H122.436V66H121.596L121.626 62.71L121.606 59.84L118.606 66H117.636Z" fill="#0F0E0E"/>
<path d="M130.34 66V59.05H133.75V59.79L131.18 59.76L131.13 62.11H133.51V62.82H131.13L131.18 65.28L133.75 65.26V66H130.34Z" fill="#0F0E0E"/>
<path d="M159.912 66.14C159.565 66.14 159.235 66.0867 158.922 65.98C158.615 65.8733 158.342 65.69 158.102 65.43C157.869 65.1633 157.685 64.7933 157.552 64.32C157.419 63.8467 157.352 63.2433 157.352 62.51C157.352 61.7767 157.419 61.1767 157.552 60.71C157.685 60.2433 157.869 59.88 158.102 59.62C158.342 59.3533 158.615 59.17 158.922 59.07C159.235 58.9633 159.565 58.91 159.912 58.91C160.265 58.91 160.595 58.9633 160.902 59.07C161.209 59.17 161.479 59.3533 161.712 59.62C161.952 59.88 162.139 60.2433 162.272 60.71C162.405 61.1767 162.472 61.7767 162.472 62.51C162.472 63.2433 162.405 63.8467 162.272 64.32C162.139 64.7933 161.952 65.1633 161.712 65.43C161.479 65.69 161.209 65.8733 160.902 65.98C160.595 66.0867 160.265 66.14 159.912 66.14ZM159.912 65.38C160.199 65.38 160.445 65.35 160.652 65.29C160.865 65.2233 161.038 65.0933 161.172 64.9C161.312 64.7067 161.415 64.4233 161.482 64.05C161.549 63.67 161.582 63.1667 161.582 62.54C161.582 61.9133 161.549 61.41 161.482 61.03C161.422 60.65 161.325 60.3633 161.192 60.17C161.059 59.97 160.885 59.8367 160.672 59.77C160.458 59.7033 160.205 59.67 159.912 59.67C159.612 59.67 159.355 59.7033 159.142 59.77C158.935 59.8367 158.765 59.97 158.632 60.17C158.499 60.3633 158.398 60.65 158.332 61.03C158.272 61.41 158.242 61.9133 158.242 62.54C158.242 63.1667 158.275 63.67 158.342 64.05C158.409 64.4233 158.508 64.7067 158.642 64.9C158.775 65.0933 158.949 65.2233 159.162 65.29C159.375 65.35 159.625 65.38 159.912 65.38Z" fill="#0F0E0E"/>
<path d="M172.224 66.14C171.891 66.14 171.561 66.1267 171.234 66.1C170.914 66.0733 170.644 66.0433 170.424 66.01C170.204 65.9833 170.081 65.9667 170.054 65.96L170.094 62.77L170.044 59.03C170.078 59.0233 170.204 59.0133 170.424 59C170.651 58.98 170.921 58.96 171.234 58.94C171.548 58.92 171.854 58.91 172.154 58.91C172.521 58.91 172.851 58.9667 173.144 59.08C173.438 59.1933 173.671 59.3867 173.844 59.66C174.024 59.9267 174.114 60.2967 174.114 60.77C174.114 61.0967 174.068 61.3633 173.974 61.57C173.888 61.7767 173.778 61.9367 173.644 62.05C173.518 62.1567 173.391 62.2333 173.264 62.28C173.144 62.3267 173.054 62.3533 172.994 62.36V62.4C173.094 62.4067 173.218 62.4367 173.364 62.49C173.511 62.5367 173.654 62.6167 173.794 62.73C173.941 62.8367 174.061 62.9933 174.154 63.2C174.248 63.4 174.294 63.6567 174.294 63.97C174.294 64.4033 174.234 64.7633 174.114 65.05C174.001 65.33 173.844 65.55 173.644 65.71C173.444 65.87 173.221 65.98 172.974 66.04C172.734 66.1067 172.484 66.14 172.224 66.14ZM172.194 62.06C172.608 62.06 172.884 61.9633 173.024 61.77C173.171 61.57 173.244 61.2467 173.244 60.8C173.244 60.3267 173.158 59.9967 172.984 59.81C172.811 59.6233 172.521 59.53 172.114 59.53C171.828 59.53 171.574 59.54 171.354 59.56C171.141 59.58 170.984 59.5967 170.884 59.61V62.05L172.194 62.06ZM172.334 65.49C172.768 65.49 173.054 65.37 173.194 65.13C173.334 64.89 173.404 64.52 173.404 64.02C173.404 63.52 173.288 63.1767 173.054 62.99C172.828 62.8033 172.514 62.71 172.114 62.71H170.884L170.904 65.39C170.971 65.3967 171.134 65.4167 171.394 65.45C171.661 65.4767 171.974 65.49 172.334 65.49Z" fill="#0F0E0E"/>
<path d="M184.217 66.14C183.87 66.14 183.54 66.0867 183.227 65.98C182.92 65.8733 182.647 65.69 182.407 65.43C182.174 65.1633 181.99 64.7933 181.857 64.32C181.724 63.8467 181.657 63.2433 181.657 62.51C181.657 61.7767 181.724 61.1767 181.857 60.71C181.99 60.2433 182.174 59.88 182.407 59.62C182.647 59.3533 182.92 59.17 183.227 59.07C183.54 58.9633 183.87 58.91 184.217 58.91C184.57 58.91 184.9 58.9633 185.207 59.07C185.514 59.17 185.784 59.3533 186.017 59.62C186.257 59.88 186.444 60.2433 186.577 60.71C186.71 61.1767 186.777 61.7767 186.777 62.51C186.777 63.2433 186.71 63.8467 186.577 64.32C186.444 64.7933 186.257 65.1633 186.017 65.43C185.784 65.69 185.514 65.8733 185.207 65.98C184.9 66.0867 184.57 66.14 184.217 66.14ZM184.217 65.38C184.504 65.38 184.75 65.35 184.957 65.29C185.17 65.2233 185.344 65.0933 185.477 64.9C185.617 64.7067 185.72 64.4233 185.787 64.05C185.854 63.67 185.887 63.1667 185.887 62.54C185.887 61.9133 185.854 61.41 185.787 61.03C185.727 60.65 185.63 60.3633 185.497 60.17C185.364 59.97 185.19 59.8367 184.977 59.77C184.764 59.7033 184.51 59.67 184.217 59.67C183.917 59.67 183.66 59.7033 183.447 59.77C183.24 59.8367 183.07 59.97 182.937 60.17C182.804 60.3633 182.704 60.65 182.637 61.03C182.577 61.41 182.547 61.9133 182.547 62.54C182.547 63.1667 182.58 63.67 182.647 64.05C182.714 64.4233 182.814 64.7067 182.947 64.9C183.08 65.0933 183.254 65.2233 183.467 65.29C183.68 65.35 183.93 65.38 184.217 65.38Z" fill="#0F0E0E"/>
<path d="M194.349 66V59.05H195.189L195.169 62.4L195.159 65.26H197.399L197.379 59.05H198.219L198.209 62.48V65.26H200.409L200.399 62.43L200.379 59.05H201.219V65.4L201.739 65.39V67.24H201.029L200.859 66H194.349Z" fill="#0F0E0E"/>
<path d="M209.124 66V59.05H209.964L209.934 62.71L209.954 64.59L212.664 59.05H213.924V66H213.084L213.114 62.71L213.094 59.84L210.094 66H209.124Z" fill="#0F0E0E"/>
<path fill-rule="evenodd" clip-rule="evenodd" d="M0.00399606 36.1152C-0.0396177 34.5045 0.282722 33.072 0.534379 31.6232C1.37307 26.7959 3.82571 22.7192 6.73831 18.9364C8.54527 16.5898 10.6593 14.4662 12.7472 12.353C15.264 9.80581 18.2581 7.84721 21.3126 6.02019C23.291 4.8366 29.6842 1.37207 33.9433 0.485254C35.6978 0.120051 37.5918 -0.0696961 39.411 0.0235471C40.7914 0.0944821 41.8659 1.15851 42.4592 2.38872C42.9518 3.41013 43.1382 4.58569 43.411 5.70511C43.9426 7.88781 43.4418 9.97576 42.8949 12.0151C42.4698 13.601 41.9918 15.0603 41.3047 16.576C41.039 17.1615 39.7462 20.1333 37.677 22.899C37.0664 23.961 36.2325 24.9072 35.4214 25.8386C34.0448 27.4198 32.6699 29.0114 31.1801 30.4825C29.4247 32.216 27.5772 33.8603 25.7148 35.48C23.8951 37.0627 22.0595 38.6363 20.1338 40.0853C17.9308 41.7429 16.2185 43.1528 13.0127 44.2502C11.789 44.669 11.2526 44.8257 10.3598 45.0693C7.54291 45.8378 5.05517 44.8417 2.7256 43.4413C1.59214 42.76 1.05098 41.4885 0.714098 40.2242C0.348394 38.8501 0.0408422 37.4792 0.00399606 36.1152ZM27.12 14.8224C26.9806 14.0346 27.1453 13.5558 28.0025 13.5087C28.4449 13.4842 28.9703 13.5017 29.3072 13.2754C31.1545 12.0351 33.1627 10.9824 34.4243 9.02227C35.2855 7.68378 36.1904 6.36834 36.2566 4.70651C36.3232 3.03189 35.6592 2.36791 33.8225 2.60628C32.8384 2.73411 31.9037 2.978 30.9948 3.30686C28.4214 4.23804 26.7986 5.13739 24.8937 6.236C23.1609 7.23536 21.5452 8.44426 19.9172 9.61557C18.1927 10.8563 16.3975 12.0354 14.8457 13.4709C12.9347 15.2385 11.1278 17.1495 9.48648 19.1695C7.48476 21.6332 5.63869 24.2537 4.42829 27.2115C3.7049 28.9793 3.38231 30.9076 2.72334 32.7063C2.25437 33.9869 2.29121 35.2687 2.3629 36.5526C2.42782 37.7226 2.3639 39.1092 2.96046 39.9931C3.94076 41.4458 6.15529 43.506 9.66946 43.0836C10.3209 43.0164 10.9593 42.7167 11.5784 42.4595C13.3227 41.7349 15.1031 41.0734 16.7717 40.1998C17.7385 39.6938 19.0948 38.716 19.9906 38.0558C21.0178 37.2988 21.576 36.7844 22.531 35.951C24.274 34.4298 25.9349 32.8106 27.5792 31.1811C29.0803 29.6934 30.5033 28.1273 31.9801 26.6149C34.3488 24.1888 36.2846 21.4532 37.7692 18.4138C38.8122 16.2787 39.8186 14.1191 40.6976 11.9131C41.2488 10.5297 41.9895 8.47058 41.794 6.87817C41.6479 5.68682 41.5782 5.08274 41.1443 3.84326C40.6107 2.31803 39.1333 1.2896 37.5046 1.54978C38.5167 3.10984 38.3152 4.76667 37.8139 6.39918C37.5765 7.17245 37.1584 7.90235 36.7446 8.60644C36.2505 9.44663 35.7956 10.367 35.1038 11.0202C34.0829 11.9842 32.9013 12.7931 31.727 13.5759C30.3522 14.4915 28.8535 15.0771 27.12 14.8224Z" fill="#0F0E0E"/>
<path fill-rule="evenodd" clip-rule="evenodd" d="M75.986 10.0216C76.5324 10.7593 76.8781 11.2262 77.2155 11.6819C75.1716 13.6977 75.1716 13.6977 73.9537 13.3926C72.1886 16.0716 70.4132 18.7662 68.5193 21.6412C69.0193 21.5163 69.3708 21.4657 69.6946 21.3424C72.2798 20.3573 75.0105 21.0328 76.9821 22.9674C79.4618 25.4 80.5186 28.5211 81.2798 31.739C81.5706 32.9682 81.2786 34.3528 81.157 35.6577C80.9901 37.4509 80.5306 39.1774 79.4796 40.6743C76.4648 45.337 70.6198 45.4981 69.2915 45.6175C68.2486 45.7112 67.1755 45.5132 66.1195 45.4081C65.1064 45.3071 64.0709 45.262 63.0929 45.0084C61.2583 44.5326 59.4511 43.9463 57.6459 43.3643C56.1367 42.8778 54.6559 42.2672 53.5886 41.0538C53.174 40.5826 53.0346 39.8507 52.8406 39.2157C52.7862 39.0378 52.9173 38.6796 53.075 38.5793C54.4686 37.6928 54.6225 35.9648 55.6723 34.8326C56.5476 33.8886 57.2489 32.7845 58.0397 31.7611C59.9853 29.243 61.988 26.7675 63.8727 24.2048C65.5134 21.9738 67.0206 19.6439 68.5947 17.3635C69.2101 16.4719 69.9204 15.6377 70.4591 14.7033C71.5966 12.7299 72.6285 10.6964 73.7477 8.71218C74.1299 8.03391 74.5322 7.24986 75.5955 7.68024C75.7429 7.73989 75.9955 7.62685 76.1647 7.5321C79.1402 5.8645 82.321 4.59168 85.6793 4.27235C87.5622 4.09338 89.8404 3.82243 91.3776 5.66448C91.5696 5.89433 91.5534 6.29788 91.6336 6.62097C91.2942 6.6518 90.9488 6.73904 90.6164 6.70294C89.3709 6.56784 88.1307 6.26505 86.8869 6.25753C83.5703 6.23722 80.6562 7.62334 77.7832 9.09017C77.2165 9.37842 76.6535 9.67494 75.986 10.0216ZM66.4246 24.7738C65.9493 25.2859 65.5064 25.6769 65.1665 26.1427C62.3362 30.0238 59.5338 33.9259 56.6899 37.7973C56.4628 38.1066 55.0294 39.4451 55.2803 39.682C55.6006 39.9845 56.0119 40.2261 56.426 40.3873C58.2505 41.0989 60.084 41.7895 61.9271 42.4524C62.859 42.7876 69.4457 43.423 71.7226 43.0628C73.5609 42.772 75.5549 42.3289 76.7172 40.5324C77.2947 39.6401 77.8511 38.725 78.3118 37.7692C79.4232 35.4642 79.2979 33.0582 78.564 30.7033C78.0968 29.2041 77.4095 27.7654 76.733 26.3414C76.083 24.9723 75.0826 23.8562 73.6582 23.2797C71.847 22.5468 70.2059 23.1752 68.6546 24.1449C67.9653 24.5758 67.3332 25.2082 66.4246 24.7738Z" fill="#0F0E0E"/>
<path fill-rule="evenodd" clip-rule="evenodd" d="M175.076 41.5064C174.772 41.4272 174.426 41.4567 174.107 41.5069C173.831 41.55 173.574 41.7344 173.299 41.7608C172.197 41.866 171.093 41.9565 169.988 42.0117C166.901 42.1658 163.812 42.2957 160.725 42.4435C159.776 42.4892 158.825 42.5348 157.879 42.6278C155.196 42.8912 154.137 42.3799 152.895 40.0862C153.452 39.5665 154.083 39.0607 154.611 38.4639C155.137 37.8686 155.147 37.1477 154.55 36.5966C154.005 36.0927 153.378 36.2702 152.908 36.7703C152.559 37.142 152.299 37.6002 152.014 38.0293C151.808 38.3396 151.695 38.7537 151.421 38.97C149.327 40.6231 147.184 42.2039 144.45 42.6513C143.351 42.8313 142.664 42.2247 142.555 41.1251C142.341 38.9763 143.552 37.3019 144.512 35.625C145.275 34.2933 146.474 33.1801 147.6 32.0951C148.873 30.8686 150.211 29.6863 151.647 28.6603C153.246 27.5174 154.978 26.5579 156.669 25.5457C157.731 24.9096 158.767 24.1473 159.923 23.7764C160.681 23.533 161.769 23.6375 162.466 24.0245C163.921 24.8321 164.256 27.8828 163.074 29.1516C162.169 30.1239 161.074 30.9263 160.031 31.7637C159.329 32.3279 158.554 32.8017 157.84 33.3536C157.216 33.8366 157.302 34.3464 157.893 34.8116C158.554 35.3315 159.039 34.9174 159.53 34.5089C159.974 34.1401 160.409 33.7594 160.872 33.4185C162.442 32.265 164.253 31.3564 165.156 29.503C165.964 27.8437 166.394 26.0764 165.587 24.3042C164.525 21.9712 162.293 21.152 159.659 21.8042C156.275 22.6422 153.548 24.6436 150.767 26.5706C150.131 27.0118 149.58 27.5958 148.904 27.9525C148.816 27.9986 143.808 33.0245 142.367 35.029C141.086 36.8099 140.229 38.7915 140.16 41.065C140.091 43.3339 142.311 45.4629 144.443 44.927C145.749 44.5987 146.994 44.0056 148.234 43.4562C148.695 43.2519 150.877 41.6309 151.572 41.1359C151.581 41.4888 151.385 41.7753 151.445 41.9894C151.601 42.5431 151.719 43.2915 152.121 43.561C154.066 44.8646 156.315 44.7884 158.53 44.6548C160.706 44.5237 162.881 44.3415 165.049 44.1134C167.101 43.8976 169.151 43.6427 171.186 43.3081C172.268 43.1303 173.317 42.7524 174.378 42.4536C174.668 42.3719 174.984 42.2964 175.212 42.1197C175.29 42.0608 175.177 41.5327 175.076 41.5064Z" fill="#0F0E0E"/>
<path fill-rule="evenodd" clip-rule="evenodd" d="M146.164 24.334C146.206 24.2979 149.285 25.2095 149.064 24.8924C148.947 24.8593 147.72 23.7968 147.641 23.7367C145.265 21.9197 142.654 20.5383 139.815 19.6618C137.419 18.9219 134.975 18.2962 132.51 17.837C130.718 17.5029 128.86 17.4387 127.029 17.4117C125.649 17.3914 124.259 17.5799 122.882 17.7485C120.892 17.9927 118.9 18.2471 116.928 18.6053C115.69 18.8301 115.396 19.7623 116.146 20.8198C117.34 22.5042 117.918 24.3791 118.068 26.4247C118.089 26.7159 118.483 26.9799 118.705 27.2563C118.908 26.9683 119.305 26.6643 119.283 26.3954C119.151 24.8175 118.966 23.2401 118.707 21.678C118.511 20.4987 118.734 20.1488 119.932 20.0932C121.111 20.0383 122.288 19.925 123.467 19.8994C125.76 19.8498 128.055 19.8142 130.348 19.8265C133.823 19.8453 137.167 20.6729 140.406 21.8124C142.381 22.5075 144.268 23.4519 146.164 24.334Z" fill="#0F0E0E"/>
<path fill-rule="evenodd" clip-rule="evenodd" d="M98.1926 38.1096C96.605 39.0385 95.2613 40.085 93.7385 40.6507C91.7867 41.3759 89.9341 42.6141 87.6677 42.2777C86.4756 42.101 84.9847 40.6838 84.9263 39.4839C84.8471 37.8539 85.3579 36.3776 86.1976 35.002C86.6312 34.2916 87.0506 33.5712 87.5113 32.8782C89.0654 30.5411 90.7949 28.1724 93.2984 26.7477C94.1599 26.2574 94.9379 25.8283 95.7455 25.2453C97.8375 23.7353 100.211 23.1849 102.744 23.1869C104.829 23.1884 106.658 24.7768 107.172 26.8124C107.864 29.556 106.834 31.5808 104.73 33.2123C103.862 33.8853 102.881 34.4247 102.076 35.1616C101.574 35.6218 101.266 36.3169 100.941 36.9428C100.324 38.1289 99.7921 39.3594 99.1599 40.5362C98.7862 41.232 98.5827 42.0383 99.0699 42.5607C99.4564 42.9755 100.328 43.2307 100.904 43.1247C103.025 42.7342 105.109 42.1444 107.215 41.6664C109.149 41.2275 111.09 40.8069 113.041 40.4545C113.331 40.4021 113.93 40.5803 114.027 40.9402C114.127 41.3124 113.677 41.8015 113.398 41.8844C110.184 42.8437 106.953 43.7435 103.72 44.6374C102.662 44.9301 101.594 45.1996 100.517 45.4091C99.3858 45.6292 98.5025 45.1896 97.6101 44.4376C96.6313 43.6129 96.0716 42.7186 96.5048 41.5385C96.8441 40.6141 97.3785 39.7612 97.8247 38.8753C97.9277 38.6711 98.0232 38.463 98.1926 38.1096ZM101.377 32.8629C101.498 32.9025 101.504 33.0827 101.567 33.1928C102.016 32.8744 102.479 32.5724 102.913 32.2343C104.027 31.3665 105.057 30.2849 105.16 28.9016C105.255 27.6212 104.536 26.4354 103.583 25.4433C102.94 24.7746 102.358 25.25 101.782 25.3458C100.509 25.5571 99.1376 25.6511 98.019 26.2148C96.407 27.0269 94.9098 28.123 93.5047 29.2705C92.4404 30.1395 91.501 31.2071 90.6778 32.3142C89.5682 33.8061 88.4976 35.3572 87.6644 37.0107C87.2794 37.7752 87.3258 38.8846 87.5364 39.7501C87.607 40.0411 88.7874 40.0762 89.4664 40.194C89.6173 40.2201 89.7907 40.0938 89.9574 40.0517C91.0335 39.7807 94.3073 37.9605 94.7459 37.7138C96.8043 36.556 98.5283 35.0055 100.217 33.39C100.506 33.1126 100.971 32.7291 101.377 32.8629Z" fill="#0F0E0E"/>
<path fill-rule="evenodd" clip-rule="evenodd" d="M175.763 19.2968C177.095 20.9218 179.136 22.1016 179.254 24.5894C178.592 24.6821 178.31 24.5706 177.886 24.065C176.949 22.9476 175.778 22.0191 174.661 21.0632C174.061 20.5503 173.352 20.1678 172.732 19.6765C171.892 19.0108 171.861 18.5546 172.669 17.8543C173.015 17.5538 173.51 17.2958 173.957 17.2612C176.361 17.0743 178.771 16.9519 181.18 16.8299C183.905 16.6918 186.631 16.4789 189.356 16.4805C192.101 16.482 194.846 16.6915 197.59 16.8381C199.734 16.9529 201.882 17.0409 204.016 17.2678C206.439 17.5254 208.847 17.932 211.263 18.2588C212.184 18.3837 213.155 18.329 214.022 18.6093C214.836 18.8729 215.719 18.5566 216.528 19.1975C217.037 19.6018 217.976 19.4637 218.859 19.5883C218.559 20.8341 217.629 20.4092 217.039 20.349C215.165 20.157 213.309 19.773 211.435 19.5846C209.122 19.3519 206.799 19.2218 204.479 19.0835C202.075 18.9401 199.669 18.8293 197.264 18.7243C195.296 18.6383 193.323 18.4744 191.358 18.5326C186.234 18.6839 181.114 18.9384 175.991 19.1559C175.937 19.1582 175.885 19.2191 175.763 19.2968Z" fill="#0F0E0E"/>
<path fill-rule="evenodd" clip-rule="evenodd" d="M117.54 40.446C117.877 40.446 118.355 38.7895 118.644 40.6556C118.673 41.1135 118.699 41.5131 118.743 42.2036C122.024 38.1084 125.145 34.2128 128.267 30.3164C127.76 29.8313 127.196 29.5489 128.181 28.7683C129.545 27.6873 130.634 26.2618 131.873 25.017C132.379 24.5097 132.99 24.4709 133.536 24.9932C134.095 25.5291 134.032 26.0969 133.494 26.6074C133.168 26.9167 132.798 27.1784 132.402 27.4983C133.07 28.9132 131.643 29.4426 131.1 30.349C130.664 31.0758 129.998 31.6614 129.46 32.3309C128.53 33.4891 127.615 34.6602 126.702 35.8325C125.234 37.7182 123.798 39.6299 122.298 41.4895C121.42 42.5784 120.506 43.6572 119.477 44.5959C119.098 44.9413 118.04 45.1588 117.82 44.929C117.405 44.4971 117.248 43.7028 117.218 43.0483C117.184 42.3051 117.407 41.3411 117.54 40.446Z" fill="#0F0E0E"/>
<path fill-rule="evenodd" clip-rule="evenodd" d="M192.869 25.4507C192.993 26.8328 191.705 27.8467 191.007 28.895C189.916 30.537 188.78 32.1637 187.513 33.6709C186.16 35.2796 184.629 36.7374 183.185 38.2709C182.281 39.2314 181.38 40.1947 180.507 41.1833C179.338 42.5082 178.233 43.8933 177.015 45.1709C176.76 45.4386 175.991 45.5639 175.704 45.3777C175.204 45.0526 175.03 44.458 175.568 43.8652C177.172 42.1029 178.742 40.3115 180.333 38.5374C181.271 37.4901 182.248 36.4762 183.161 35.4082C184.426 33.9301 185.676 32.4369 186.88 30.9092C187.858 29.6672 188.812 28.3982 189.676 27.0757C190.137 26.3704 190.301 25.47 190.768 24.7705C190.956 24.4887 191.637 24.3481 192.019 24.4426C192.336 24.5208 192.822 24.9284 192.869 25.4507Z" fill="#0F0E0E"/>
<path fill-rule="evenodd" clip-rule="evenodd" d="M29.9961 51.3766C29.8908 51.3766 29.785 50.2158 29.7991 50.114C30.154 47.5571 32.1043 45.8652 33.2173 43.7256C34.6337 41.0025 36.968 39.0507 38.8274 36.704C39.5428 35.8012 40.504 35.0876 41.3883 34.3283C41.638 34.114 42.0082 33.9463 42.3288 33.9361C42.622 33.9265 42.9988 34.0932 43.1883 34.3123C43.2805 34.4191 43.1008 34.8928 42.9193 35.0781C42.4614 35.5458 41.8605 35.8844 41.447 36.3827C40.5241 37.4951 39.6941 38.6842 38.8011 39.8222C37.4037 41.6028 35.9749 43.3591 34.5818 45.143C34.169 45.6722 32.0803 48.6026 31.5439 49.2528C31.0363 49.8679 30.5994 50.5411 29.9961 51.3766Z" fill="#0F0E0E"/>
</svg>