<svg width="268" height="296" viewBox="0 0 268 296" fill="none" xmlns="http://www.w3.org/2000/svg">
<path d="M84.7832 257.817C89.1458 248.588 98.5409 242.203 109.427 242.203C124.473 242.203 136.671 254.401 136.671 269.446M129.738 249.767C137.686 249.767 144.882 252.989 150.091 258.198M147.953 261.636C150.998 256.541 156.567 253.128 162.934 253.128C170.463 253.128 176.879 257.9 179.32 264.583M171.014 247.404C171.854 247.299 172.71 247.245 173.579 247.245C182.078 247.245 189.371 252.413 192.487 259.777M185.834 261.947C188.996 260.599 192.475 259.852 196.13 259.852C208.467 259.852 218.818 268.359 221.637 279.827M216.625 282.472C220.341 279.868 224.866 278.341 229.747 278.341C238.341 278.341 245.829 283.075 249.747 290.076M246.194 295C247.782 290.673 251.938 287.586 256.815 287.586C261.5 287.586 265.52 290.435 267.237 294.494M53.8746 268.227C56.3278 259.982 63.9655 253.969 73.0085 253.969C79.01 253.969 84.3929 256.617 88.0521 260.81M19.8521 287.371C22.028 275.54 32.3946 266.575 44.8548 266.575C52.2278 266.575 58.868 269.713 63.5122 274.728M1 287.188C2.86995 282.497 7.45447 279.182 12.813 279.182C16.0755 279.182 19.0515 280.41 21.3022 282.431M143.473 195.139C143.473 195.139 137.792 196.401 132.889 196.12C127.987 195.839 120.144 190.376 120.144 190.376L115.381 243.184M158.103 196.96C158.103 196.96 163.146 200.462 168.468 201.022C173.79 201.583 180.934 198.992 180.934 198.992L181.378 200.071L169.519 254.249M118.465 244.724L122.387 195.559C122.387 195.559 124.348 200.323 128.831 200.462C133.313 200.602 137.655 200.042 137.655 200.042M145.217 216.892C145.217 216.892 140.327 242.764 143.472 243.184C146.618 243.604 149.839 217.551 149.839 217.551M163.287 202.423C163.287 202.423 168.89 203.685 170.851 203.824C172.811 203.964 178.555 203.123 178.555 203.123L167.909 253.269M209.713 9.89517L152.984 1.0707C149.772 0.571489 148.449 2.7692 147.948 5.97963C147.449 9.19005 147.965 12.1979 151.176 12.6971L153.705 13.0905L150.866 31.8689C150.836 32.0748 148.507 50.2599 165.158 56.7354L163.567 67.1147C163.428 68.0282 164.06 68.8955 164.972 69.0418L174.614 70.5839C175.527 70.7302 176.389 70.1015 176.528 69.188L178.106 58.8886C183.148 58.723 187.508 57.2741 191.099 54.5234C197.935 49.285 199.334 41.185 199.512 39.9378L202.716 20.714L207.905 21.5208C208.211 21.5687 208.515 21.5914 208.816 21.5914C211.666 21.5914 212.489 19.5155 212.941 16.6118C213.44 13.4023 212.923 10.3944 209.713 9.89517ZM190.382 38.4805C190.374 38.5276 190.362 38.6125 190.356 38.6596C190.349 38.7133 189.58 44.0929 185.408 47.2378C182.533 49.4052 178.525 50.1314 173.496 49.3985C167.03 48.4556 162.965 45.6502 161.071 40.8211C159.563 36.977 160.012 33.2077 160.012 33.2077L162.839 14.5116L193.579 19.2928L190.382 38.4805ZM156.661 200.251C156.817 199.34 157.058 197.847 157.197 196.933L159.357 182.834C159.497 181.92 158.864 181.058 157.951 180.918L148.299 179.439C147.386 179.3 146.523 179.932 146.384 180.846L144.621 192.356C144.481 193.269 144.28 194.58 144.174 195.269C144.068 195.959 143.883 197.272 143.762 198.188C143.762 198.188 141.434 215.73 147.737 216.851C153.668 217.904 156.661 200.251 156.661 200.251ZM153.482 199.832C153.482 201.263 152.448 202.423 151.171 202.423C149.895 202.423 148.86 201.263 148.86 199.832C148.86 198.401 149.895 197.241 151.171 197.241C152.448 197.241 153.482 198.401 153.482 199.832ZM155.163 188.907C155.163 190.338 154.128 191.498 152.852 191.498C151.576 191.498 150.541 190.338 150.541 188.907C150.541 187.476 151.576 186.316 152.852 186.316C154.128 186.316 155.163 187.476 155.163 188.907ZM174.493 62.8428C174.493 64.2738 173.458 65.4338 172.182 65.4338C170.905 65.4338 169.871 64.2738 169.871 62.8428C169.871 61.4118 170.905 60.2518 172.182 60.2518C173.458 60.2518 174.493 61.4118 174.493 62.8428ZM164.423 68.9544L147.516 179.319L158.315 180.974L175.212 70.6806L164.423 68.9544Z" stroke="black" stroke-miterlimit="10"/>
</svg>