<svg width="205" height="183" viewBox="0 0 205 183" fill="none" xmlns="http://www.w3.org/2000/svg">
<path d="M30.8851 87.7642L15.5565 103.088L7.42548 94.9581L10.5569 91.8277C12.8021 89.583 12.8023 85.9439 10.557 83.6995C8.31171 81.455 4.67018 81.455 2.42463 83.6995C0.179485 85.9441 0.179353 89.5831 2.42463 91.8276L14.6219 104.021L6.49081 112.15M84.7028 33.9466L69.3742 49.2699L61.2431 41.1405L64.3745 38.0101C66.6198 35.7654 66.6199 32.1263 64.3747 29.8819C62.1294 27.6374 58.4879 27.6374 56.2423 29.8819C53.9972 32.1265 53.997 35.7655 56.2423 38.01L68.4395 50.203L60.3085 58.3324M57.6777 60.9719L42.3491 76.2952L34.2181 68.1657L37.3494 65.0354C39.5947 62.7906 39.5949 59.1516 37.3496 56.9071C35.1043 54.6626 31.4628 54.6626 29.2172 56.9071C26.9721 59.1517 26.9719 62.7908 29.2172 65.0353L41.4144 77.2283L33.2834 85.3577M111.728 6.92131L96.3995 22.2446L88.2684 14.1152L91.3998 10.9849C93.6451 8.7401 93.6452 5.10107 91.3999 2.85658C89.1547 0.612096 85.5131 0.612096 83.2676 2.85658C81.0224 5.1012 81.0223 8.74023 83.2676 10.9847L95.4648 23.1777L87.3338 31.3072M84.7022 142.047L69.3736 157.37L61.2426 149.241L64.3739 146.11C66.6192 143.865 66.6194 140.226 64.3741 137.982C62.1288 135.737 58.4873 135.737 56.2417 137.982C53.9966 140.227 53.9964 143.866 56.2417 146.11L68.4389 158.303L60.3079 166.433M138.52 88.2291L123.191 103.552L115.06 95.4229L118.192 92.2926C120.437 90.0479 120.437 86.4088 118.192 84.1643C115.946 81.9199 112.305 81.9199 110.059 84.1643C107.814 86.409 107.814 90.048 110.059 92.2925L122.257 104.485L114.126 112.615M111.495 115.254L96.1662 130.578L88.0352 122.448L91.1666 119.318C93.4118 117.073 93.412 113.434 91.1667 111.19C88.9214 108.945 85.2799 108.945 83.0343 111.19C80.7892 113.434 80.789 117.073 83.0343 119.318L95.2315 131.511L87.1005 139.64M165.545 61.2038L150.217 76.5271L142.086 68.3977L145.217 65.2673C147.462 63.0226 147.462 59.3836 145.217 57.1391C142.972 54.8946 139.33 54.8946 137.085 57.1391C134.84 59.3837 134.839 63.0227 137.085 65.2672L149.282 77.4602L141.151 85.5897M69.5684 103.131L54.2398 118.454L46.1088 110.325L49.2402 107.194C51.4855 104.95 51.4856 101.311 49.2403 99.0661C46.995 96.8216 43.3535 96.8216 41.1079 99.0661C38.8628 101.311 38.8627 104.95 41.1079 107.194L53.3052 119.387L45.1741 127.517M123.386 49.3132L108.057 64.6365L99.9264 56.507L103.058 53.3767C105.303 51.132 105.303 47.4929 103.058 45.2484C100.813 43.004 97.1711 43.004 94.9256 45.2484C92.6804 47.4931 92.6803 51.1321 94.9256 53.3766L107.123 65.5696L98.9917 73.699M96.361 76.3384L81.0324 91.6618L72.9013 83.5323L76.0327 80.402C78.278 78.1572 78.2781 74.5182 76.0328 72.2737C73.7876 70.0292 70.146 70.0292 67.9005 72.2737C65.6553 74.5183 65.6552 78.1574 67.9005 80.4019L80.0977 92.5949L71.9666 100.724M150.411 22.2879L135.083 37.6112L126.952 29.4818L130.083 26.3514C132.328 24.1067 132.328 20.4677 130.083 18.2232C127.838 15.9787 124.196 15.9787 121.951 18.2232C119.706 20.4678 119.706 24.1068 121.951 26.3513L134.148 38.5443L126.017 46.6738M122.896 157.342L107.567 172.666L99.4362 164.536L102.568 161.406C104.813 159.161 104.813 155.522 102.568 153.278C100.322 151.033 96.6808 151.033 94.4353 153.278C92.1902 155.522 92.19 159.161 94.4353 161.406L106.633 173.599L98.5015 181.728M177.204 103.596L161.875 118.919L153.744 110.79L156.876 107.66C159.121 105.415 159.121 101.776 156.876 99.5313C154.631 97.2868 150.989 97.2868 148.744 99.5313C146.498 101.776 146.498 105.415 148.744 107.659L160.941 119.852L152.81 127.982M150.179 130.621L134.85 145.945L126.719 137.815L129.851 134.685C132.096 132.44 132.096 128.801 129.851 126.557C127.606 124.312 123.964 124.312 121.718 126.557C119.473 128.801 119.473 132.44 121.718 134.685L133.916 146.878L125.785 155.007M204.229 76.5707L188.901 91.894L180.77 83.7646L183.901 80.6343C186.146 78.3895 186.146 74.7505 183.901 72.506C181.656 70.2615 178.014 70.2615 175.769 72.506C173.524 74.7506 173.524 78.3896 175.769 80.6341L187.966 92.8271L179.835 100.957" stroke="black"/>
</svg>