<svg width="25" height="24" viewBox="0 0 25 24" fill="none" xmlns="http://www.w3.org/2000/svg">
<path fill-rule="evenodd" clip-rule="evenodd" d="M21.1466 0.148438H4.21773C2.28359 0.148438 0.715332 1.67399 0.715332 3.5558V20.592C0.715332 22.4739 2.28359 23.9994 4.21773 23.9994H13.5845C13.5812 21.3254 13.5734 18.6515 13.5836 15.9781C13.5851 15.6427 13.4905 15.5584 13.1638 15.5694C12.4261 15.5947 11.6865 15.5709 10.9482 15.5807C10.6439 15.5849 10.5204 15.4656 10.5228 15.1586C10.5317 14.1622 10.5293 13.1655 10.5195 12.1695C10.5162 11.8517 10.6397 11.7273 10.9655 11.7342C11.7266 11.7506 12.4883 11.7306 13.2494 11.7428C13.501 11.7473 13.5875 11.6686 13.583 11.4128C13.5689 10.5637 13.5785 9.71434 13.5752 8.86496C13.5692 7.15904 14.4072 5.94594 15.8504 5.14068C16.3629 4.85477 16.9495 4.70093 17.5742 4.7218C18.5393 4.7537 19.506 4.7382 20.4714 4.72031C20.784 4.71465 20.8869 4.80975 20.8798 5.12756C20.8606 6.01033 20.8675 6.89371 20.8792 7.77708C20.8833 8.07223 20.7646 8.17628 20.4747 8.17628C19.7372 8.17598 18.9992 8.18492 18.262 8.21354C17.8919 8.22785 17.4527 8.64226 17.4411 9.00151C17.4136 9.83867 17.4184 10.6767 17.4097 11.5145C17.4067 11.7601 17.5877 11.7387 17.7444 11.739C18.5396 11.7408 19.3348 11.7387 20.1309 11.7381C20.2216 11.7378 20.3125 11.7378 20.4035 11.7399C20.8262 11.7485 20.8941 11.849 20.8047 12.2577C20.7475 12.5198 20.7284 12.7902 20.6886 13.0561C20.5725 13.8232 20.4657 14.5921 20.3242 15.3547C20.3068 15.4477 20.1019 15.5664 19.9807 15.5697C19.2657 15.5897 18.5486 15.6007 17.8342 15.5697C17.471 15.5536 17.4034 15.6791 17.4043 16.0124C17.4142 18.675 17.4073 21.3374 17.4046 24H21.1469C23.0811 24 24.6493 22.4745 24.6493 20.5926V3.5564C24.649 1.67399 23.0808 0.148438 21.1466 0.148438Z" fill="currentColor"/>
</svg>