<svg width="45" height="31" viewBox="0 0 45 31" fill="none" xmlns="http://www.w3.org/2000/svg">
<path fill-rule="evenodd" clip-rule="evenodd" d="M36.982 0.404588C41.8941 0.872434 43.2291 2.23447 43.814 7.05064C44.5345 12.9855 44.6223 18.9456 43.5437 24.8684C42.9247 28.2663 41.2917 29.9954 37.8604 30.0369C27.4062 30.1648 16.9484 30.169 6.49424 30.0377C2.95425 29.9928 1.33381 28.2369 0.761737 24.7103C-0.262397 18.3985 -0.246888 12.0815 0.766267 5.77009C1.29935 2.44877 2.88798 0.798862 6.20497 0.544565C11.5414 0.135578 32.0957 -0.0617481 36.982 0.404588ZM17.5763 8.56225C21.6448 10.8626 25.3836 12.9762 29.4423 15.2709C25.3809 17.5649 21.6066 19.6966 17.5763 21.9732C17.5763 17.4023 17.5763 13.1943 17.5763 8.56225Z" fill="#0F0E0E"/>
</svg>