<svg width="21" height="24" viewBox="0 0 21 24" fill="none" xmlns="http://www.w3.org/2000/svg">
<path d="M16.5 6.5C16.5 7.28139 16.136 8.42623 15.5292 9.76063C14.9314 11.0754 14.1301 12.5068 13.3226 13.8367C12.5162 15.1649 11.7089 16.383 11.1029 17.2695C10.8673 17.6141 10.6624 17.9082 10.5 18.1389C10.3376 17.9082 10.1327 17.6141 9.89715 17.2695C9.2911 16.383 8.48385 15.1649 7.67739 13.8367C6.8699 12.5068 6.06861 11.0754 5.47078 9.76063C4.86402 8.42623 4.5 7.28139 4.5 6.5C4.5 3.18629 7.18629 0.5 10.5 0.5C13.8137 0.5 16.5 3.18629 16.5 6.5Z" stroke="black"/>
<circle cx="10.5" cy="6.5" r="3" stroke="black"/>
<path d="M5 16C2.57916 16.725 1 17.9158 1 19.2619C1 21.471 5.25329 23.2619 10.5 23.2619C15.7467 23.2619 20 21.471 20 19.2619C20 17.9158 18.4208 16.725 16 16" stroke="black"/>
</svg>