<svg width="180" height="163" viewBox="0 0 180 163" fill="none" xmlns="http://www.w3.org/2000/svg">
<path d="M93.8611 47.1293L90.2431 65.2191L86.8261 52.1542L84.2132 58.1842M109.841 62.5057L106.224 80.5956L102.807 67.5307L100.194 73.5607M77.8826 62.5057L74.2646 80.5956L70.8477 67.5307L68.2347 73.5607M93.8611 77.8819L90.2431 95.9718L86.8261 82.9069L84.2132 88.9368M1 84.8164C4.78411 79.5835 15.0264 72.2574 25.7228 84.8164M31.4515 54.0637C35.2356 48.8308 45.4779 41.5048 56.1743 54.0637M61.9023 23.3109C65.6864 18.078 75.9287 10.752 86.6251 23.3109M16.3768 69.4402C20.1609 64.2073 30.4032 56.8812 41.0996 69.4402M46.8276 38.6872C50.6117 33.4543 60.854 26.1283 71.5505 38.6872M77.2791 7.93445C81.0632 2.70155 91.3055 -4.62451 102.002 7.93445M32.0551 115.569C35.8392 110.336 46.0815 103.01 56.7779 115.569M62.5059 84.8164C66.29 79.5835 76.5323 72.2574 87.2287 84.8164M92.9574 54.0637C96.7415 48.8308 106.984 41.5048 117.68 54.0637M47.4312 100.193C51.2153 94.9599 61.4577 87.6339 72.1541 100.193M77.8827 69.4402C81.6668 64.2073 91.9091 56.8812 102.606 69.4402M108.334 38.6872C112.118 33.4543 122.36 26.1283 133.056 38.6872M63.1082 146.623C66.8923 141.391 77.1346 134.064 87.8311 146.623M93.5597 115.871C97.3438 110.638 107.586 103.312 118.283 115.871M124.011 85.1182C127.795 79.8853 138.037 72.5592 148.733 85.1182M78.485 131.247C82.2691 126.014 92.5114 118.688 103.208 131.247M108.936 100.494C112.72 95.2614 122.962 87.9353 133.659 100.494M139.387 69.7417C143.171 64.5088 153.414 57.1827 164.11 69.7417M16.3768 100.193C20.1609 94.9599 30.4032 87.6339 41.0996 100.193M46.8276 69.4402C50.6117 64.2073 60.854 56.8812 71.5505 69.4402M77.2791 38.6872C81.0632 33.4543 91.3055 26.1283 102.002 38.6872M31.753 84.8164C35.5371 79.5835 45.7794 72.2574 56.4758 84.8164M62.2044 54.0637C65.9885 48.8308 76.2309 41.5048 86.9273 54.0637M92.6553 23.3109C96.4394 18.078 106.682 10.752 117.378 23.3109M47.4312 130.945C51.2153 125.713 61.4577 118.386 72.1541 130.945M77.8827 100.193C81.6668 94.9599 91.9091 87.6339 102.606 100.193M108.334 69.4402C112.118 64.2073 122.36 56.8812 133.056 69.4402M62.8067 115.569C66.5909 110.336 76.8332 103.01 87.5296 115.569M93.2589 84.8164C97.043 79.5835 107.285 72.2574 117.982 84.8164M123.71 54.0637C127.494 48.8308 137.737 41.5048 148.433 54.0637M78.485 162C82.2691 156.767 92.5114 149.441 103.208 162M108.936 131.247C112.72 126.014 122.962 118.688 133.659 131.247M139.387 100.494C143.171 95.2614 153.414 87.9353 164.11 100.494M93.8612 146.623C97.6453 141.391 107.888 134.064 118.584 146.623M124.313 115.871C128.097 110.638 138.339 103.312 149.035 115.871M154.763 85.1182C158.548 79.8853 168.79 72.5592 179.486 85.1182" stroke="black"/>
</svg>