<svg width="850" height="27" viewBox="0 0 850 27" fill="none" xmlns="http://www.w3.org/2000/svg">
<path d="M122.885 25.8749H103.004V14.9368L107.126 14.9375C110.081 14.9379 112.476 12.5273 112.475 9.55317C112.475 6.57899 110.078 4.16671 107.123 4.16602C104.168 4.16567 101.773 6.5762 101.773 9.55037V25.8749L0 25.8749" stroke="black"/>
<path d="M454.623 25.8749L434.517 25.8749V14.9368L438.638 14.9375C441.593 14.9379 443.988 12.5273 443.988 9.55317C443.987 6.57899 441.59 4.16671 438.635 4.16602C435.681 4.16567 433.285 6.5762 433.286 9.55037V25.8749H422.512" stroke="black"/>
<path d="M285.475 25.8749L265.369 25.8749V14.9368L269.49 14.9375C272.445 14.9379 274.84 12.5273 274.839 9.55317C274.839 6.57899 272.442 4.16671 269.487 4.16602C266.532 4.16567 264.137 6.5762 264.138 9.55037V25.8749H253.364" stroke="black"/>
<path d="M616.988 25.8749L596.881 25.8749V14.9368L601.002 14.9375C603.957 14.9379 606.352 12.5273 606.352 9.55317C606.351 6.57899 603.955 4.16671 601 4.16602C598.045 4.16567 595.65 6.5762 595.65 9.55037V25.8749H584.877" stroke="black"/>
<path d="M265.123 25.8749L245.017 25.8749V14.9368L249.138 14.9375C252.093 14.9379 254.488 12.5273 254.487 9.55317C254.487 6.57899 252.09 4.16671 249.135 4.16602C246.18 4.16567 243.785 6.5762 243.786 9.55037V25.8749H233.012" stroke="black"/>
<path d="M596.636 25.8749L576.529 25.8749V14.9368L580.65 14.9375C583.606 14.9379 586.001 12.5273 586 9.55317C586 6.57899 583.603 4.16671 580.648 4.16602C577.693 4.16567 575.298 6.5762 575.298 9.55037V25.8749H564.525" stroke="black"/>
<path d="M427.488 25.8749L407.381 25.8749V14.9368L411.502 14.9375C414.457 14.9379 416.852 12.5273 416.852 9.55317C416.851 6.57899 414.455 4.16671 411.499 4.16602C408.545 4.16567 406.149 6.5762 406.15 9.55037V25.8749H395.376" stroke="black"/>
<path d="M849.5 25.8749L738.893 25.8749V14.9368L743.014 14.9375C745.97 14.9379 748.365 12.5273 748.364 9.55317C748.364 6.57899 745.967 4.16671 743.012 4.16602C740.057 4.16567 737.662 6.5762 737.662 9.55037V25.8749H726.889" stroke="black"/>
<path d="M214.921 25.8749L194.815 25.8749V14.9368L198.936 14.9375C201.891 14.9379 204.286 12.5273 204.286 9.55317C204.285 6.57899 201.888 4.16671 198.933 4.16602C195.978 4.16567 193.583 6.5762 193.584 9.55037V25.8749H182.358" stroke="black"/>
<path d="M546.434 25.8749L526.327 25.8749V14.9368L530.449 14.9375C533.404 14.9379 535.799 12.5273 535.798 9.55317C535.798 6.57899 533.401 4.16671 530.446 4.16602C527.491 4.16567 525.096 6.5762 525.096 9.55037V25.8749H514.323" stroke="black"/>
<path d="M377.286 25.8749L357.179 25.8749V14.9368L361.3 14.9375C364.255 14.9379 366.651 12.5273 366.65 9.55317C366.65 6.57899 364.253 4.16671 361.298 4.16602C358.343 4.16567 355.948 6.5762 355.948 9.55037V25.8749H345.175" stroke="black"/>
<path d="M708.798 25.8749L688.692 25.8749V14.9368L692.813 14.9375C695.768 14.9379 698.163 12.5273 698.162 9.55317C698.162 6.57899 695.765 4.16671 692.81 4.16602C689.855 4.16567 687.46 6.5762 687.461 9.55037V25.8749H676.687" stroke="black"/>
<path d="M182.81 25.8749L162.704 25.8749V14.9368L166.825 14.9375C169.78 14.9379 172.175 12.5273 172.174 9.55317C172.174 6.57899 169.777 4.16671 166.822 4.16602C163.867 4.16567 161.472 6.5762 161.473 9.55037V25.8749H150.699" stroke="black"/>
<path d="M514.323 25.8749L494.216 25.8749V14.9368L498.337 14.9375C501.293 14.9379 503.688 12.5273 503.687 9.55317C503.687 6.57899 501.29 4.16671 498.335 4.16602C495.38 4.16567 492.985 6.5762 492.985 9.55037V25.8749H482.212" stroke="black"/>
<path d="M345.175 25.8749L325.068 25.8749V14.9368L329.189 14.9375C332.144 14.9379 334.539 12.5273 334.539 9.55317C334.538 6.57899 332.142 4.16671 329.186 4.16602C326.232 4.16567 323.836 6.5762 323.837 9.55037V25.8749H313.063" stroke="black"/>
<path d="M676.687 25.8749L656.581 25.8749V14.9368L660.702 14.9375C663.657 14.9379 666.052 12.5273 666.051 9.55317C666.051 6.57899 663.654 4.16671 660.699 4.16602C657.744 4.16567 655.349 6.5762 655.35 9.55037V25.8749H644.576" stroke="black"/>
<path d="M159.292 25.8747L136.354 25.8747V13.3416L141.055 13.3424C144.427 13.3428 147.159 10.5807 147.159 7.17278C147.158 3.76487 144.424 1.0008 141.052 1C137.681 0.999599 134.949 3.76167 134.95 7.16958V25.8747H122.659" stroke="black"/>
<path d="M490.805 25.8747L467.867 25.8747V13.3416L472.568 13.3424C475.939 13.3428 478.672 10.5807 478.671 7.17278C478.671 3.76487 475.936 1.0008 472.565 1C469.194 0.999599 466.462 3.76167 466.462 7.16958V25.8747H454.171" stroke="black"/>
<path d="M321.657 25.8747L298.718 25.8747V13.3416L303.42 13.3424C306.791 13.3428 309.523 10.5807 309.523 7.17278C309.522 3.76487 306.788 1.0008 303.417 1C300.046 0.999599 297.313 3.76167 297.314 7.16958V25.8747H285.023" stroke="black"/>
<path d="M653.169 25.8747L630.231 25.8747V13.3416L634.932 13.3424C638.304 13.3428 641.036 10.5807 641.036 7.17278C641.035 3.76487 638.301 1.0008 634.929 1C631.558 0.999599 628.826 3.76167 628.827 7.16958V25.8747H616.536" stroke="black"/>
<path d="M147.159 25.8747H136.354V13.3416L141.055 13.3424C144.427 13.3428 147.159 10.5807 147.159 7.17278C147.158 3.76487 144.424 1.0008 141.052 1C137.681 0.999599 134.949 3.76166 134.95 7.16957V25.8747H122.659" stroke="black"/>
<path d="M490.805 25.8747L467.867 25.8747V13.3416L472.568 13.3424C475.939 13.3428 478.672 10.5807 478.671 7.17278C478.671 3.76487 475.936 1.0008 472.565 1C469.194 0.999599 466.462 3.76167 466.462 7.16958V25.8747H454.171" stroke="black"/>
<path d="M321.657 25.8747L298.718 25.8747V13.3416L303.42 13.3424C306.791 13.3428 309.523 10.5807 309.523 7.17278C309.522 3.76487 306.788 1.0008 303.417 1C300.046 0.999599 297.313 3.76167 297.314 7.16958V25.8747H285.023" stroke="black"/>
<path d="M653.169 25.8747L630.231 25.8747V13.3416L634.932 13.3424C638.304 13.3428 641.036 10.5807 641.036 7.17278C641.035 3.76487 638.301 1.0008 634.929 1C631.558 0.999599 628.826 3.76167 628.827 7.16958V25.8747H616.536" stroke="black"/>
<path d="M239.796 25.8747L216.858 25.8747V13.3416L221.559 13.3424C224.93 13.3428 227.663 10.5807 227.662 7.17278C227.662 3.76487 224.927 1.0008 221.556 1C218.185 0.999599 215.453 3.76167 215.453 7.16958V25.8747H203.162" stroke="black"/>
<path d="M571.309 25.8747L548.37 25.8747V13.3416L553.072 13.3424C556.443 13.3428 559.175 10.5807 559.175 7.17278C559.174 3.76487 556.44 1.0008 553.069 1C549.698 0.999599 546.965 3.76167 546.966 7.16958V25.8747H534.675" stroke="black"/>
<path d="M402.16 25.8747L379.222 25.8747V13.3416L383.923 13.3424C387.295 13.3428 390.027 10.5807 390.027 7.17278C390.026 3.76487 387.292 1.0008 383.92 1C380.549 0.999599 377.817 3.76167 377.817 7.16958V25.8747H365.527" stroke="black"/>
<path d="M733.673 25.8747L710.734 25.8747V13.3416L715.436 13.3424C718.807 13.3428 721.54 10.5807 721.539 7.17278C721.538 3.76487 718.804 1.0008 715.433 1C712.062 0.999599 709.329 3.76167 709.33 7.16958V25.8747H697.039" stroke="black"/>
</svg>