<svg width="97" height="20" viewBox="0 0 97 20" fill="none" xmlns="http://www.w3.org/2000/svg">
<path d="M10 3.21082C11.0319 6.42731 13.5727 8.96807 16.7892 10C13.5727 11.0319 11.0319 13.5727 10 16.7892C8.96807 13.5727 6.42731 11.0319 3.21082 10C6.42731 8.96807 8.96807 6.42731 10 3.21082ZM48 3.21082C49.0319 6.42731 51.5727 8.96807 54.7892 10C51.5727 11.0319 49.0319 13.5727 48 16.7892C46.9681 13.5727 44.4273 11.0319 41.2108 10C44.4273 8.96807 46.9681 6.42731 48 3.21082ZM87 16.7892C85.9681 13.5727 83.4273 11.0319 80.2108 10C83.4273 8.96807 85.9681 6.42731 87 3.21082C88.0319 6.42731 90.5727 8.96807 93.7892 10C90.5727 11.0319 88.0319 13.5727 87 16.7892Z" stroke="black"/>
</svg>