<svg width="147" height="35" viewBox="0 0 147 35" fill="none" xmlns="http://www.w3.org/2000/svg">
<path fill-rule="evenodd" clip-rule="evenodd" d="M0.00268402 24.2573C-0.0266099 23.1755 0.189895 22.2133 0.358924 21.2402C0.922242 17.9979 2.5696 15.2597 4.52589 12.7189C5.73957 11.1428 7.15948 9.71647 8.56188 8.29706C10.2523 6.58623 12.2633 5.2707 14.3149 4.04356C15.6438 3.24858 19.9378 0.921571 22.7985 0.325929C23.977 0.0806345 25.2491 -0.0468125 26.471 0.0158158C27.3982 0.0634604 28.1199 0.778131 28.5184 1.60442C28.8492 2.29047 28.9745 3.08006 29.1577 3.83193C29.5147 5.29797 29.1784 6.70038 28.811 8.07012C28.5255 9.1353 28.2044 10.1155 27.743 11.1335C27.5645 11.5268 26.6961 13.5228 25.3064 15.3805C24.8962 16.0938 24.3361 16.7293 23.7913 17.3549C22.8667 18.4169 21.9433 19.486 20.9426 20.4741C19.7636 21.6384 18.5226 22.7428 17.2718 23.8307C16.0495 24.8937 14.8166 25.9507 13.5232 26.9239C12.0435 28.0373 10.8934 28.9843 8.74017 29.7213C7.91826 30.0026 7.55798 30.1079 6.9583 30.2715C5.06632 30.7877 3.39539 30.1186 1.83069 29.178C1.06939 28.7205 0.705905 27.8664 0.479636 27.0172C0.234005 26.0943 0.0274323 25.1735 0.00268402 24.2573ZM18.2156 9.9557C18.122 9.42656 18.2326 9.105 18.8083 9.07335C19.1055 9.05685 19.4584 9.06863 19.6846 8.91661C20.9254 8.08358 22.2743 7.37649 23.1216 6.05995C23.7001 5.16093 24.3078 4.2774 24.3523 3.1612C24.3971 2.03642 23.9511 1.59044 22.7174 1.75055C22.0564 1.83641 21.4286 2.00022 20.8182 2.22111C19.0897 2.84655 17.9997 3.45061 16.7202 4.18851C15.5564 4.85974 14.4712 5.67172 13.3777 6.45845C12.2194 7.29181 11.0136 8.08375 9.97136 9.04792C8.68781 10.2352 7.47414 11.5187 6.37175 12.8755C5.02726 14.5303 3.78732 16.2904 2.97433 18.277C2.48845 19.4644 2.27178 20.7596 1.82917 21.9677C1.51418 22.8278 1.53893 23.6888 1.58708 24.5511C1.63068 25.337 1.58775 26.2684 1.98844 26.862C2.64688 27.8378 4.1343 29.2215 6.49464 28.9378C6.9322 28.8927 7.361 28.6913 7.77684 28.5186C8.94843 28.0319 10.1443 27.5876 11.265 27.0009C11.9143 26.661 12.8253 26.0042 13.427 25.5608C14.1169 25.0523 14.4919 24.7069 15.1333 24.1471C16.3041 23.1253 17.4196 22.0377 18.524 20.9433C19.5323 19.9441 20.488 18.8922 21.48 17.8763C23.0709 16.2468 24.3712 14.4094 25.3683 12.3679C26.0688 10.9338 26.7448 9.48329 27.3352 8.0016C27.7054 7.07244 28.2029 5.6894 28.0716 4.61983C27.9735 3.81964 27.9267 3.4139 27.6352 2.58138C27.2768 1.55694 26.2845 0.866178 25.1905 1.04093C25.8704 2.08878 25.735 3.20161 25.3983 4.29811C25.2389 4.81749 24.958 5.30774 24.6801 5.78065C24.3483 6.34498 24.0427 6.96318 23.578 7.40192C22.8923 8.04941 22.0987 8.59269 21.3099 9.11847C20.3865 9.73347 19.3799 10.1267 18.2156 9.9557Z" fill="#0F0E0E"/>
<path fill-rule="evenodd" clip-rule="evenodd" d="M51.0372 6.73122C51.4042 7.22669 51.6364 7.54034 51.863 7.84641C50.4902 9.20032 50.4902 9.20033 49.6722 8.99544C48.4866 10.7948 47.2942 12.6046 46.0221 14.5357C46.3579 14.4518 46.594 14.4178 46.8115 14.335C48.5479 13.6734 50.382 14.1271 51.7063 15.4265C53.3718 17.0603 54.0816 19.1567 54.5929 21.3181C54.7882 22.1437 54.592 23.0737 54.5104 23.9501C54.3983 25.1545 54.0897 26.3142 53.3838 27.3196C51.3588 30.4514 47.4329 30.5596 46.5408 30.6397C45.8402 30.7027 45.1195 30.5697 44.4102 30.4992C43.7297 30.4313 43.0343 30.401 42.3773 30.2306C41.1451 29.9111 39.9313 29.5173 38.7188 29.1264C37.7051 28.7996 36.7105 28.3895 35.9936 27.5745C35.7152 27.258 35.6216 26.7664 35.4913 26.3399C35.4547 26.2204 35.5428 25.9798 35.6487 25.9125C36.5847 25.317 36.6881 24.1564 37.3932 23.3959C37.9811 22.7619 38.4521 22.0203 38.9833 21.3329C40.2901 19.6416 41.6352 17.9789 42.9011 16.2576C44.0032 14.7591 45.0155 13.1942 46.0727 11.6625C46.4861 11.0637 46.9632 10.5034 47.325 9.87577C48.089 8.55031 48.7821 7.18444 49.5338 5.85173C49.7905 5.39616 50.0608 4.86954 50.7749 5.15861C50.8739 5.19868 51.0436 5.12275 51.1573 5.05911C53.1558 3.93904 55.2922 3.08413 57.5479 2.86965C58.8126 2.74944 60.3427 2.56745 61.3753 3.8047C61.5042 3.95908 61.4933 4.23013 61.5472 4.44714C61.3192 4.46785 61.0872 4.52644 60.864 4.50219C60.0274 4.41145 59.1944 4.20808 58.359 4.20302C56.1313 4.18939 54.174 5.12039 52.2443 6.10561C51.8637 6.29922 51.4856 6.49839 51.0372 6.73122ZM44.6151 16.6398C44.2959 16.9837 43.9984 17.2464 43.7701 17.5592C41.8691 20.166 39.9869 22.787 38.0767 25.3872C37.9242 25.595 36.9613 26.494 37.1299 26.6531C37.345 26.8563 37.6213 27.0186 37.8994 27.1268C39.1249 27.6048 40.3564 28.0686 41.5943 28.5139C42.2203 28.739 46.6443 29.1658 48.1737 28.9239C49.4084 28.7286 50.7476 28.4309 51.5283 27.2243C51.9162 26.625 52.2899 26.0103 52.5994 25.3684C53.3459 23.8202 53.2617 22.2041 52.7688 20.6224C52.4549 19.6155 51.9933 18.6491 51.5389 17.6927C51.1024 16.7731 50.4305 16.0234 49.4737 15.6362C48.2572 15.144 47.1549 15.566 46.113 16.2174C45.65 16.5068 45.2254 16.9316 44.6151 16.6398Z" fill="#0F0E0E"/>
<path fill-rule="evenodd" clip-rule="evenodd" d="M117.593 27.8785C117.389 27.8253 117.156 27.8451 116.941 27.8788C116.756 27.9077 116.584 28.0317 116.399 28.0493C115.659 28.12 114.917 28.1808 114.175 28.2179C112.102 28.3214 110.027 28.4086 107.953 28.5079C107.316 28.5386 106.677 28.5692 106.042 28.6317C104.24 28.8086 103.529 28.4652 102.694 26.9246C103.069 26.5756 103.492 26.2358 103.847 25.835C104.2 25.4351 104.207 24.9509 103.806 24.5807C103.44 24.2423 103.018 24.3615 102.703 24.6974C102.468 24.947 102.294 25.2548 102.103 25.543C101.964 25.7515 101.888 26.0296 101.704 26.1749C100.297 27.2852 98.8585 28.347 97.0221 28.6475C96.2837 28.7684 95.8228 28.361 95.7494 27.6224C95.6056 26.1791 96.4187 25.0545 97.064 23.9282C97.5765 23.0337 98.3818 22.286 99.1378 21.5572C99.9926 20.7334 100.892 19.9393 101.856 19.2502C102.93 18.4825 104.094 17.8381 105.229 17.1582C105.943 16.731 106.639 16.219 107.415 15.9698C107.924 15.8063 108.655 15.8766 109.123 16.1365C110.1 16.6789 110.325 18.728 109.531 19.5802C108.923 20.2333 108.188 20.7722 107.488 21.3346C107.016 21.7136 106.495 22.0318 106.016 22.4025C105.597 22.7269 105.654 23.0694 106.051 23.3818C106.495 23.731 106.821 23.4529 107.151 23.1785C107.449 22.9308 107.741 22.6751 108.052 22.4461C109.107 21.6714 110.323 21.0611 110.93 19.8162C111.473 18.7017 111.761 17.5147 111.219 16.3244C110.506 14.7573 109.007 14.2071 107.237 14.6452C104.964 15.208 103.133 16.5523 101.265 17.8466C100.838 18.143 100.468 18.5352 100.013 18.7748C99.9549 18.8058 96.591 22.1815 95.6229 23.5278C94.7628 24.724 94.187 26.055 94.1405 27.582C94.0943 29.1059 95.5857 30.5359 97.0176 30.176C97.8944 29.9555 98.7311 29.5571 99.5634 29.1881C99.8734 29.0509 101.339 27.9621 101.805 27.6296C101.812 27.8667 101.68 28.0591 101.72 28.2029C101.825 28.5748 101.904 29.0775 102.174 29.2585C103.481 30.1341 104.991 30.0829 106.479 29.9932C107.941 29.9051 109.401 29.7827 110.858 29.6295C112.236 29.4846 113.613 29.3134 114.98 29.0886C115.706 28.9692 116.411 28.7154 117.124 28.5147C117.319 28.4598 117.531 28.4091 117.684 28.2904C117.736 28.2509 117.66 27.8961 117.593 27.8785Z" fill="#0F0E0E"/>
<path fill-rule="evenodd" clip-rule="evenodd" d="M98.173 16.3443C98.2015 16.3201 100.27 16.9324 100.121 16.7194C100.042 16.6972 99.2187 15.9835 99.1656 15.9431C97.5696 14.7227 95.816 13.7949 93.9092 13.2062C92.2999 12.7092 90.6578 12.289 89.0027 11.9805C87.7988 11.7561 86.5511 11.713 85.3213 11.6948C84.3938 11.6812 83.4603 11.8078 82.5356 11.9211C81.1991 12.0851 79.8608 12.256 78.5365 12.4966C77.7052 12.6476 77.5072 13.2737 78.0109 13.984C78.8131 15.1153 79.2015 16.3746 79.302 17.7486C79.3164 17.9442 79.5812 18.1215 79.73 18.3072C79.8665 18.1137 80.1334 17.9095 80.1182 17.7289C80.0293 16.6691 79.9056 15.6096 79.7313 14.5604C79.6 13.7683 79.7492 13.5333 80.5541 13.4959C81.3459 13.459 82.1367 13.3829 82.9286 13.3658C84.4689 13.3324 86.0098 13.3085 87.5503 13.3168C89.884 13.3294 92.1301 13.8853 94.3056 14.6507C95.6322 15.1175 96.8997 15.7519 98.173 16.3443Z" fill="#0F0E0E"/>
<path fill-rule="evenodd" clip-rule="evenodd" d="M65.9528 25.5969C64.8864 26.2209 63.9839 26.9237 62.9611 27.3037C61.6501 27.7908 60.4058 28.6224 58.8836 28.3965C58.0829 28.2778 57.0815 27.3259 57.0422 26.52C56.989 25.4252 57.3322 24.4336 57.8961 23.5097C58.1874 23.0325 58.4691 22.5487 58.7785 22.0832C59.8223 20.5134 60.984 18.9225 62.6655 17.9655C63.2441 17.6362 63.7667 17.348 64.3091 16.9564C65.7142 15.9422 67.3082 15.5725 69.01 15.5739C70.41 15.5749 71.6388 16.6418 71.9836 18.009C72.4485 19.8518 71.7567 21.2118 70.344 22.3076C69.761 22.7596 69.1017 23.1219 68.5613 23.6169C68.2239 23.926 68.0168 24.3928 67.7985 24.8132C67.3847 25.6099 67.0271 26.4363 66.6025 27.2268C66.3515 27.6941 66.2148 28.2357 66.542 28.5866C66.8017 28.8652 67.387 29.0366 67.7741 28.9654C69.1987 28.7031 70.5981 28.3069 72.0128 27.9859C73.3121 27.6911 74.6152 27.4086 75.9257 27.1719C76.1205 27.1367 76.5233 27.2564 76.5882 27.4982C76.6553 27.7482 76.3531 28.0766 76.1658 28.1324C74.0073 28.7767 71.8367 29.3811 69.6656 29.9814C68.9546 30.178 68.2374 30.359 67.5138 30.4998C66.7542 30.6476 66.1609 30.3523 65.5615 29.8472C64.9041 29.2933 64.5282 28.6926 64.8191 27.9C65.0471 27.2791 65.406 26.7062 65.7057 26.1113C65.7749 25.974 65.839 25.8343 65.9528 25.5969ZM68.0918 22.0729C68.1726 22.0995 68.1766 22.2206 68.2192 22.2945C68.5211 22.0806 68.8315 21.8778 69.1231 21.6507C69.8714 21.0678 70.5634 20.3414 70.6326 19.4122C70.6966 18.5523 70.2132 17.7558 69.5731 17.0894C69.1416 16.6402 68.7505 16.9596 68.3638 17.0239C67.5084 17.1658 66.5875 17.229 65.8361 17.6076C64.7534 18.1531 63.7479 18.8893 62.8041 19.66C62.0892 20.2437 61.4582 20.9607 60.9053 21.7044C60.16 22.7064 59.441 23.7482 58.8814 24.8589C58.6228 25.3723 58.6539 26.1175 58.7953 26.6988C58.8428 26.8943 59.6356 26.9178 60.0917 26.997C60.193 27.0145 60.3095 26.9296 60.4215 26.9013C61.1442 26.7194 63.3431 25.4967 63.6377 25.3311C65.0203 24.5535 66.1782 23.512 67.3123 22.427C67.5069 22.2406 67.8192 21.983 68.0918 22.0729Z" fill="#0F0E0E"/>
<path fill-rule="evenodd" clip-rule="evenodd" d="M118.054 12.961C118.949 14.0525 120.32 14.8449 120.399 16.5159C119.954 16.5782 119.765 16.5032 119.48 16.1637C118.851 15.4131 118.064 14.7895 117.314 14.1474C116.911 13.803 116.435 13.5461 116.018 13.2161C115.454 12.7689 115.433 12.4625 115.976 11.9922C116.208 11.7903 116.541 11.6171 116.841 11.5938C118.456 11.4682 120.074 11.3861 121.692 11.3041C123.523 11.2113 125.354 11.0684 127.184 11.0694C129.028 11.0704 130.872 11.2112 132.715 11.3096C134.154 11.3867 135.597 11.4458 137.03 11.5982C138.658 11.7713 140.275 12.0443 141.898 12.2639C142.517 12.3477 143.169 12.311 143.751 12.4992C144.298 12.6763 144.891 12.4639 145.434 12.8944C145.776 13.1659 146.407 13.0732 147 13.1568C146.799 13.9936 146.174 13.7082 145.778 13.6678C144.519 13.5388 143.273 13.2809 142.014 13.1543C140.46 12.9981 138.9 12.9107 137.341 12.8178C135.727 12.7215 134.111 12.6471 132.496 12.5765C131.173 12.5188 129.848 12.4087 128.529 12.4477C125.087 12.5494 121.648 12.7203 118.208 12.8664C118.171 12.8679 118.136 12.9088 118.054 12.961Z" fill="#0F0E0E"/>
<path fill-rule="evenodd" clip-rule="evenodd" d="M78.9477 27.1663C79.174 27.1663 79.4949 26.0536 79.6888 27.307C79.7087 27.6146 79.726 27.8829 79.7556 28.3468C81.9594 25.5962 84.0556 22.9796 86.1523 20.3625C85.8121 20.0367 85.4329 19.847 86.0947 19.3227C87.0111 18.5966 87.7423 17.6392 88.5748 16.8031C88.9142 16.4624 89.3248 16.4363 89.6913 16.7871C90.0671 17.1471 90.0245 17.5284 89.6635 17.8713C89.4447 18.0791 89.1957 18.2549 88.9297 18.4697C89.3783 19.42 88.4201 19.7756 88.0551 20.3844C87.7625 20.8726 87.315 21.2659 86.9539 21.7156C86.3289 22.4935 85.7146 23.2801 85.1013 24.0675C84.1152 25.334 83.151 26.6181 82.1434 27.8671C81.5533 28.5985 80.94 29.3231 80.2484 29.9536C79.9939 30.1855 79.2836 30.3317 79.1354 30.1773C78.857 29.8872 78.7512 29.3537 78.7312 28.9141C78.7085 28.4149 78.8585 27.7674 78.9477 27.1663Z" fill="#0F0E0E"/>
<path fill-rule="evenodd" clip-rule="evenodd" d="M129.543 17.0944C129.627 18.0227 128.761 18.7037 128.293 19.4078C127.56 20.5107 126.797 21.6033 125.946 22.6157C125.038 23.6962 124.009 24.6753 123.039 25.7053C122.432 26.3505 121.827 26.9974 121.24 27.6614C120.455 28.5514 119.713 29.4817 118.895 30.3398C118.723 30.5196 118.207 30.6038 118.015 30.4787C117.679 30.2603 117.561 29.861 117.923 29.4628C119 28.2791 120.055 27.0759 121.123 25.8843C121.754 25.1809 122.41 24.4999 123.023 23.7825C123.873 22.7897 124.712 21.7868 125.521 20.7607C126.178 19.9265 126.818 19.0741 127.399 18.1859C127.708 17.7121 127.819 17.1074 128.132 16.6375C128.259 16.4483 128.716 16.3538 128.973 16.4173C129.186 16.4698 129.512 16.7436 129.543 17.0944Z" fill="#0F0E0E"/>
<path fill-rule="evenodd" clip-rule="evenodd" d="M20.1474 34.5079C20.0767 34.5079 20.0056 33.7282 20.015 33.6599C20.2534 31.9425 21.5634 30.8061 22.3109 29.369C23.2623 27.54 24.8302 26.229 26.0791 24.6529C26.5595 24.0465 27.2052 23.5671 27.7991 23.0572C27.9668 22.9132 28.2155 22.8006 28.4308 22.7937C28.6278 22.7873 28.8808 22.8993 29.0081 23.0464C29.0701 23.1181 28.9493 23.4363 28.8275 23.5607C28.5199 23.8749 28.1163 24.1023 27.8385 24.437C27.2186 25.1842 26.6612 25.9829 26.0614 26.7472C25.1228 27.9432 24.1632 29.1229 23.2274 30.3211C22.9502 30.6765 21.5473 32.6447 21.187 33.0814C20.8461 33.4946 20.5526 33.9468 20.1474 34.5079Z" fill="#0F0E0E"/>
</svg>