<svg width="317" height="73" viewBox="0 0 317 73" fill="none" xmlns="http://www.w3.org/2000/svg">
<path d="M0 72.0883L72.4864 72.0883L72.4864 42.0716L72.3519 27.051C72.2776 18.7541 78.9453 11.9659 87.2423 11.8917C95.5392 11.8174 102.325 18.483 102.399 26.7799C102.474 35.0769 95.806 41.865 87.509 41.9393L76.4079 41.9393V72.0883L90.9491 72.0882M90.6848 71.9817L126.996 71.9815L126.996 36.338L126.836 18.5018C126.748 8.64956 134.666 0.588912 144.518 0.50073C154.37 0.412553 162.428 8.32763 162.516 18.1799C162.605 28.0321 154.687 36.0927 144.835 36.1809H131.653L131.653 71.9815L154.664 71.981M154.138 72.2085L183.753 72.2084L183.753 43.1536L183.623 28.6143C183.551 20.5832 190.005 14.0126 198.036 13.9407C206.068 13.8688 212.636 20.3208 212.708 28.3519C212.78 36.383 206.326 42.9536 198.295 43.0255L187.549 43.0255L187.549 72.2084L317 72.2085" stroke="black"/>
</svg>